<svg width="24" height="22" viewBox="0 0 24 22" fill="none" xmlns="http://www.w3.org/2000/svg">
<path d="M13.5 2.3999C13.5 1.57148 12.8284 0.899902 12 0.899902C11.1716 0.899902 10.5 1.57148 10.5 2.3999L13.5 2.3999ZM10.9393 21.0606C11.5251 21.6463 12.4749 21.6463 13.0607 21.0606L22.6066 11.5146C23.1924 10.9288 23.1924 9.97909 22.6066 9.3933C22.0208 8.80752 21.0711 8.80752 20.4853 9.3933L12 17.8786L3.51472 9.3933C2.92893 8.80751 1.97918 8.80751 1.3934 9.3933C0.807611 9.97909 0.807611 10.9288 1.3934 11.5146L10.9393 21.0606ZM12 2.3999L10.5 2.3999L10.5 19.9999L12 19.9999L13.5 19.9999L13.5 2.3999L12 2.3999Z" fill="#FFFDD0"/>
</svg>
