<svg width="720" height="284" viewBox="0 0 720 284" fill="none" xmlns="http://www.w3.org/2000/svg">
<rect y="0.969238" width="720" height="282.227" rx="37.1134" fill="#FFFDD0"/>
<path d="M110.653 244.23C95.9947 244.23 84.5582 241.411 76.3433 235.774C68.1284 230.136 62.3297 221.921 58.9471 211.129C55.7255 200.337 54.1148 186.323 54.1148 169.088C54.1148 163.773 53.4705 159.665 52.1819 156.766C50.8932 153.866 47.7523 152.417 42.7589 152.417V129.947C47.7523 129.947 50.8932 128.497 52.1819 125.598C53.4705 122.698 54.1148 118.591 54.1148 113.275C54.1148 97.0065 55.7255 83.7176 58.9471 73.4087C62.3297 62.9388 68.1284 55.046 76.3433 49.7305C84.5582 44.2539 95.9947 41.5156 110.653 41.5156V60.6032C103.404 60.6032 98.1692 62.4555 94.9477 66.1603C91.7261 69.8651 89.7127 75.0195 88.9073 81.6236C88.263 88.2278 87.9408 98.7783 87.9408 113.275C87.9408 117.624 87.5381 121.248 86.7328 124.148C86.0885 127.047 84.075 130.027 80.6924 133.088C77.4709 136.148 72.397 138.886 65.4707 141.302C72.397 143.558 77.4709 146.215 80.6924 149.276C84.075 152.336 86.0885 155.316 86.7328 158.216C87.5381 161.115 87.9408 164.739 87.9408 169.088C87.9408 184.552 88.263 195.827 88.9073 202.914C89.7127 210.002 91.7261 215.478 94.9477 219.344C98.1692 223.21 103.404 225.143 110.653 225.143V244.23Z" fill="black"/>
<path d="M218.632 185.625L218.874 170.645C216.216 173.786 208.726 174.511 194.229 176.686C175.142 179.585 165.96 185.625 165.96 197.706C165.96 208.337 172.484 213.653 185.773 213.653C205.343 213.653 217.666 201.814 218.632 185.625ZM245.21 230.083H222.981C221.773 224.767 221.048 218.968 221.048 212.686C216.458 224.525 201.719 233.224 179.974 233.224C151.463 233.224 140.107 220.176 140.107 197.948C140.107 172.337 159.678 164.122 188.914 160.014C209.692 156.873 218.391 157.356 218.391 149.142C218.391 135.611 209.692 129.088 193.988 129.088C177.074 129.088 168.618 135.853 167.652 149.866H143.732C144.457 125.222 157.504 108.067 195.196 108.067C232.404 108.067 245.21 124.98 245.21 154.94V230.083ZM287.983 230.083H261.889V130.054H248.358V111.208H261.889C261.889 82.2143 276.627 67.7174 310.212 67.7174V89.2212C291.607 89.2212 287.983 95.5031 287.983 111.208H310.937V130.054H287.983V230.083ZM419.533 147.209H395.13C394.888 131.262 383.049 126.671 369.76 126.671C360.821 126.671 344.874 127.88 344.874 140.927C344.874 169.437 422.916 145.034 422.916 195.048C422.916 225.975 396.58 233.224 371.693 233.224C345.599 233.224 315.88 223.317 315.397 191.907H342.699C342.699 208.096 357.438 214.378 371.21 214.378C379.908 214.378 397.546 211.72 397.546 197.948C397.546 183.209 377.975 182.243 365.894 179.585C345.599 174.994 319.504 169.437 319.504 142.376C319.504 114.349 347.532 108.067 370.002 108.067C395.371 108.067 417.6 116.524 419.533 147.209ZM508.145 185.625L508.387 170.645C505.729 173.786 498.239 174.511 483.742 176.686C464.654 179.585 455.473 185.625 455.473 197.706C455.473 208.337 461.997 213.653 475.286 213.653C494.856 213.653 507.179 201.814 508.145 185.625ZM534.723 230.083H512.494C511.286 224.767 510.561 218.968 510.561 212.686C505.971 224.525 491.232 233.224 469.487 233.224C440.976 233.224 429.62 220.176 429.62 197.948C429.62 172.337 449.191 164.122 478.427 160.014C499.205 156.873 507.904 157.356 507.904 149.142C507.904 135.611 499.205 129.088 483.5 129.088C466.587 129.088 458.131 135.853 457.164 149.866H433.245C433.969 125.222 447.017 108.067 484.709 108.067C521.917 108.067 534.723 124.98 534.723 154.94V230.083ZM576.377 230.083H549.558V67.7174H576.377V230.083Z" fill="black"/>
<path d="M665.376 113.275C665.376 118.591 666.021 122.698 667.309 125.598C668.598 128.497 671.739 129.947 676.732 129.947V152.417C671.739 152.417 668.598 153.866 667.309 156.766C666.021 159.665 665.376 163.773 665.376 169.088C665.376 186.323 663.685 200.337 660.303 211.129C657.081 221.921 651.363 230.136 643.148 235.774C634.933 241.411 623.416 244.23 608.597 244.23V225.143C615.845 225.143 621.08 223.21 624.302 219.344C627.523 215.478 629.456 210.002 630.101 202.914C630.906 195.827 631.309 184.552 631.309 169.088C631.309 164.739 631.711 161.115 632.517 158.216C633.322 155.155 635.336 152.175 638.557 149.276C641.779 146.215 646.772 143.558 653.537 141.302C646.772 138.886 641.779 136.148 638.557 133.088C635.336 130.027 633.322 127.047 632.517 124.148C631.711 121.248 631.309 117.624 631.309 113.275C631.309 98.7783 630.906 88.2278 630.101 81.6236C629.456 75.0195 627.523 69.8651 624.302 66.1603C621.08 62.4555 615.845 60.6032 608.597 60.6032V41.5156C623.416 41.5156 634.933 44.2539 643.148 49.7305C651.363 55.046 657.081 62.9388 660.303 73.4087C663.685 83.7176 665.376 97.0065 665.376 113.275Z" fill="black"/>
</svg>
